# xmcd
#
# Track frame offsets: 
#        150
#        12769
#        23120
#        33879
#        52261
#        63793
#        79880
#        87920
#        94971
#        106817
#        120767
#        128216
#        136215
#        145051
#        155494
#        162999
#        179137
#        201152
#
# Disc length: 2908 seconds
#
# Revision: 0
# Processed by: cddbd v1.5.2PL0 Copyright (c) Steve Scherf et al.
# Submitted via: ExactAudioCopyFreeDBPlugin 1.0
#
DISCID=ec0b5a12
DTITLE=Davy Graham - Lost tapes 1961~2007
DYEAR=2007
DGENRE=Folk
TTITLE0=The gold ring
TTITLE1=Happy meeting in glory
TTITLE2=Blues bossa
TTITLE3=De Visee Suite
TTITLE4=All of me
TTITLE5=Sita ram
TTITLE6=Hessamalo
TTITLE7=For a princess
TTITLE8=Mevlut
TTITLE9=City and suburban Blues
TTITLE10=Jenra
TTITLE11=Down the black lane
TTITLE12=Forty tonne parachute
TTITLE13=The preacher
TTITLE14=Jubilation
TTITLE15=Rumores de La Caleta
TTITLE16=Capricho arabe
TTITLE17=New junkies Blues
EXTD=
EXTT0=
EXTT1=
EXTT2=
EXTT3=
EXTT4=
EXTT5=
EXTT6=
EXTT7=
EXTT8=
EXTT9=
EXTT10=
EXTT11=
EXTT12=
EXTT13=
EXTT14=
EXTT15=
EXTT16=
EXTT17=
PLAYORDER=
